<?xml version="1.0" encoding="UTF-8" standalone="no"?>
<svg
   width="16.6667in"
   height="5.55556in"
   viewBox="0 0 1500 500"
   version="1.1"
   id="svg17"
   sodipodi:docname="logo.svg"
   inkscape:version="1.1.2 (b8e25be833, 2022-02-05)"
   xmlns:inkscape="http://www.inkscape.org/namespaces/inkscape"
   xmlns:sodipodi="http://sodipodi.sourceforge.net/DTD/sodipodi-0.dtd"
   xmlns="http://www.w3.org/2000/svg"
   xmlns:svg="http://www.w3.org/2000/svg">
  <defs
     id="defs21" />
  <sodipodi:namedview
     id="namedview19"
     pagecolor="#ffffff"
     bordercolor="#666666"
     borderopacity="1.0"
     inkscape:pageshadow="2"
     inkscape:pageopacity="0.0"
     inkscape:pagecheckerboard="0"
     inkscape:document-units="in"
     showgrid="false"
     inkscape:zoom="0.86687325"
     inkscape:cx="800.00162"
     inkscape:cy="266.47494"
     inkscape:window-width="1600"
     inkscape:window-height="837"
     inkscape:window-x="-8"
     inkscape:window-y="-8"
     inkscape:window-maximized="1"
     inkscape:current-layer="svg17" />
  <path
     style="fill:#000000;stroke-width:1.15357"
     d="M 0.57678559,266.47494 V 0.57678559 H 800.00162 1599.4264 V 266.47494 532.3731 H 800.00162 0.57678559 Z m 1579.23891441,0 V 20.187496 H 800.00162 20.187496 V 266.47494 512.76239 H 800.00162 1579.8157 Z"
     id="path216"
     transform="matrix(0.93749928,0,0,0.93749928,-9.1552665e-4,0)" />
  <path
     style="fill:#000000;stroke-width:1.15357"
     d="M 180.53389,258.97673 V 104.39819 l 47.58481,0.0407 c 72.23315,0.0618 84.59691,1.48224 106.99373,12.29218 15.02239,7.25063 26.45595,18.51099 33.15871,32.65639 5.39731,11.39039 6.83958,16.82529 8.91067,33.57798 2.24878,18.19 -0.19677,39.26125 -6.41202,55.247 -6.53891,16.81821 -19.22295,29.96132 -37.25657,38.60496 -18.62365,8.92645 -34.01971,10.95162 -83.47667,10.98034 l -31.43481,0.0183 v 62.86963 62.86963 h -19.03392 -19.03393 z m 119.77381,-6.80222 c 9.47389,-3.25983 14.50609,-6.52523 21.32922,-13.84053 9.58164,-10.27278 13.91484,-23.45502 13.88062,-42.22688 -0.0543,-29.77115 -11.98506,-47.97832 -36.7426,-56.07167 -7.56825,-2.47409 -10.33728,-2.66709 -44.1241,-3.07541 l -36.0491,-0.43566 v 59.64842 59.6484 l 37.20267,-0.56731 c 34.36087,-0.52398 37.76034,-0.7592 44.50329,-3.07936 z"
     id="path255"
     transform="matrix(0.93749928,0,0,0.93749928,-9.1552665e-4,0)" />
  <path
     style="fill:#000000;stroke-width:1.15357"
     d="M 426.24455,298.19815 V 182.84103 h 17.88036 17.88035 l 0.0518,17.59196 0.0518,17.59196 4.27405,-5.18168 c 13.62402,-16.51721 24.31003,-24.69185 40.04891,-30.63682 6.2844,-2.37378 11.49287,-3.28647 23.63406,-4.14144 8.56527,-0.60316 18.81763,-0.7722 22.78303,-0.37564 l 7.20982,0.72101 v 18.31015 18.31014 l -5.47946,-1.70582 c -14.02663,-4.36667 -26.55883,-5.05855 -40.0866,-2.21313 -25.34806,5.33169 -42.54984,24.32803 -49.70063,54.88561 -1.75081,7.48173 -2.06059,17.25512 -2.47411,78.05528 l -0.4727,69.50266 h -17.80038 -17.80038 z"
     id="path294"
     transform="matrix(0.93749928,0,0,0.93749928,-9.1552665e-4,0)" />
  <path
     style="fill:#000000;stroke-width:1.15357"
     d="m 667.91772,419.22936 c -12.08477,-1.66345 -25.93177,-5.18259 -33.4161,-8.49252 -26.1579,-11.56825 -47.07446,-40.33422 -54.29823,-74.67486 -2.40163,-11.41697 -2.36834,-62.1618 0.0483,-73.6502 8.07419,-38.38337 29.04577,-65.84373 59.24103,-77.57068 13.39632,-5.20274 33.4477,-8.12331 50.34283,-7.33264 27.20801,1.27329 47.5016,9.03405 63.85778,24.42077 15.07004,14.17681 25.10418,31.44027 31.06685,53.44965 2.88173,10.63705 3.00848,12.3845 3.06384,42.24249 0.0531,28.61749 -0.15296,31.97439 -2.53712,41.34388 -11.14289,43.79003 -36.83487,70.53403 -75.41489,78.50295 -11.20429,2.31431 -31.68871,3.17421 -41.95431,1.76116 z m 28.39343,-29.89769 c 8.95151,-1.65983 21.98878,-8.45277 28.62082,-14.91257 16.69971,-16.26602 25.47197,-42.09973 25.46145,-74.98227 -0.0104,-32.69058 -7.9761,-58.17487 -23.30616,-74.56274 -12.29983,-13.14856 -24.14207,-17.18619 -48.3587,-16.48798 -13.72691,0.39577 -14.61851,0.57711 -23.36294,4.75171 -24.22838,11.56667 -37.54243,37.49631 -39.52953,76.98533 -2.44546,48.59815 14.6279,86.16018 43.85004,96.47166 10.27551,3.62588 25.63901,4.77394 36.62502,2.73686 z"
     id="path333"
     transform="matrix(0.93749928,0,0,0.93749928,-9.1552665e-4,0)" />
  <path
     style="fill:#000000;stroke-width:1.15357"
     d="M 862.29446,312.04101 V 210.52674 h -18.45714 -18.45714 v -13.84285 -13.84286 h 17.69999 17.69998 l 0.77222,-18.73187 c 0.43262,-10.49426 1.58234,-22.03534 2.6144,-26.24375 4.2948,-17.51283 13.67847,-30.31727 27.67009,-37.75713 11.91157,-6.333808 17.70508,-7.271109 49.76562,-8.051307 l 29.12767,-0.708827 V 106.342 121.33585 l -23.42448,0.75548 c -27.78788,0.8962 -33.40093,2.15429 -40.01396,8.96856 -2.4788,2.55424 -5.27434,7.03583 -6.25681,10.03043 -2.09506,6.38583 -4.11049,22.98501 -4.12384,33.96411 l -0.009,7.7866 h 72.0982 72.09824 v 115.35712 115.35712 h -17.8804 -17.8803 V 312.04101 210.52674 H 951.11944 896.9016 v 101.51427 101.51426 h -17.30357 -17.30357 z"
     id="path372"
     transform="matrix(0.93749928,0,0,0.93749928,-9.1552665e-4,0)" />
  <path
     style="fill:#000000;stroke-width:1.15357"
     d="M 1005.3373,115.35712 V 91.708909 h 17.8803 17.8804 v 23.648211 23.64821 h -17.8804 -17.8803 z"
     id="path411"
     transform="matrix(0.93749928,0,0,0.93749928,-9.1552665e-4,0)" />
  <path
     style="fill:#000000;stroke-width:1.15357"
     d="M 1124.1551,252.63209 V 91.708909 h 17.8804 17.8803 V 252.63209 413.55527 h -17.8803 -17.8804 z"
     id="path450"
     transform="matrix(0.93749928,0,0,0.93749928,-9.1552665e-4,0)" />
  <path
     style="fill:#000000;stroke-width:1.15357"
     d="m 1325.0799,419.32263 c -41.4723,-5.86634 -71.5038,-26.50406 -87.8193,-60.34978 -9.0542,-18.7824 -9.8645,-23.69494 -9.8336,-59.62113 0.027,-31.33385 0.066,-31.85063 3.2151,-42.10535 4.5536,-14.82981 14.4569,-34.37995 22.0466,-43.52213 14.6037,-17.5909 33.5161,-28.36883 59.6304,-33.98264 14.3816,-3.09163 43.2674,-2.7849 55.8163,0.5927 17.8925,4.81581 36.2114,15.85536 46.6983,28.14178 6.5869,7.71718 14.5694,22.34072 18.2079,33.3555 4.3375,13.13141 5.845,24.10571 6.2822,45.7346 0.2758,13.64417 0.036,16.66561 -1.3973,17.5743 -1.0541,0.66847 -35.475,1.10425 -88.0731,1.11501 l -86.3427,0.0177 0.7642,7.20982 c 3.2675,30.82871 17.8031,54.56609 40.6601,66.40028 14.8516,7.68935 24.2756,9.76415 44.7433,9.85069 21.8781,0.0925 30.9556,-1.65965 58.8882,-11.36685 l 21.3479,-7.41883 -0.3199,16.28944 -0.3198,16.28944 -4.2601,2.2091 c -6.477,3.35864 -25.3683,8.47813 -41.3769,11.21301 -16.1672,2.76196 -46.9815,4.01087 -58.5578,2.37338 z m 41.6136,-140.34658 35.4723,-0.76091 -0.017,-8.75403 c -0.035,-18.2269 -5.9779,-32.88755 -18.3068,-45.16524 -11.9885,-11.93864 -25.8343,-17.17982 -45.4716,-17.21279 -28.2799,-0.0475 -52.1587,12.79941 -63.3244,34.06876 -4.443,8.46333 -8.3018,21.05507 -9.5978,31.3188 l -0.7571,5.9957 6.7329,0.41922 c 12.8792,0.80189 60.0181,0.84666 95.2696,0.0905 z"
     id="path489"
     transform="matrix(0.93749928,0,0,0.93749928,-9.1552665e-4,0)" />
</svg>
