<?xml version="1.0" encoding="UTF-8" standalone="no"?>
<svg
   width="3.33333in"
   height="0.5in"
   viewBox="0 0 1000 150"
   version="1.1"
   id="svg17"
   sodipodi:docname="logo.svg"
   inkscape:version="1.1.2 (b8e25be833, 2022-02-05)"
   xmlns:inkscape="http://www.inkscape.org/namespaces/inkscape"
   xmlns:sodipodi="http://sodipodi.sourceforge.net/DTD/sodipodi-0.dtd"
   xmlns="http://www.w3.org/2000/svg"
   xmlns:svg="http://www.w3.org/2000/svg">
  <defs
     id="defs21" />
  <sodipodi:namedview
     id="namedview19"
     pagecolor="#ffffff"
     bordercolor="#666666"
     borderopacity="1.0"
     inkscape:pageshadow="2"
     inkscape:pageopacity="0.0"
     inkscape:pagecheckerboard="0"
     inkscape:document-units="in"
     showgrid="false"
     inkscape:zoom="4.3343794"
     inkscape:cx="159.99984"
     inkscape:cy="23.994208"
     inkscape:window-width="1600"
     inkscape:window-height="837"
     inkscape:window-x="-8"
     inkscape:window-y="-8"
     inkscape:window-maximized="1"
     inkscape:current-layer="svg17" />
  <path
     style="fill:#000000;stroke-width:0.230714"
     d="m 102.19512,40.813658 c 0.2162,-1.15245 0.17057,-1.094821 1.45304,-1.834972 0.60268,-0.347824 1.13557,-0.665648 1.18419,-0.706274 0.0486,-0.04063 0.22823,-0.933867 0.39913,-1.984981 0.21831,-1.342674 0.31211,-4.364394 0.31535,-10.159123 l 0.005,-8.248009 h 1.38428 1.38428 l -0.0124,8.478722 c -0.0139,9.501193 -0.1526,11.527572 -0.89358,13.058231 -0.69908,1.444099 -1.71192,2.030153 -3.7621,2.176843 l -1.62498,0.116266 0.16822,-0.896703 z"
     id="path140"
     transform="matrix(3.1250033,0,0,3.1250033,0,-7.8678214e-5)" />
  <path
     style="fill:#000000;stroke-width:0.230714"
     d="m 105.55144,12.689244 v -1.499638 h 1.38428 1.38428 v 1.499638 1.499638 h -1.38428 -1.38428 z"
     id="path179"
     transform="matrix(3.1250033,0,0,3.1250033,0,-7.8678214e-5)" />
  <path
     style="fill:#000000;stroke-width:0.230714"
     d="m 118.81747,34.861086 c -1.40833,-0.445397 -2.22498,-0.93837 -3.16025,-1.907713 -3.14496,-3.259507 -3.19452,-9.968937 -0.099,-13.395361 1.78848,-1.979629 5.7828,-2.909769 8.76834,-2.041848 3.01186,0.875572 4.97682,4.178267 4.98659,8.38143 l 0.002,0.749819 h -6.6907 c -5.3513,0 -6.69069,0.06031 -6.69069,0.301272 0,0.1657 0.22343,0.962875 0.4965,1.7715 1.2694,3.758874 4.91678,5.046703 10.174,3.592266 l 2.01875,-0.558495 v 0.987031 c 0,1.254158 -0.47803,1.706641 -2.24133,2.121551 -1.66401,0.391548 -6.32417,0.390653 -7.564,-0.0015 z m 7.69338,-11.039914 c -0.5626,-2.53989 -1.84229,-3.917392 -3.91677,-4.216153 -1.34107,-0.193139 -3.40124,0.222456 -4.38316,0.88421 -0.8324,0.560983 -1.71275,2.120554 -1.94594,3.4473 l -0.15207,0.865176 h 5.30757 5.30756 z"
     id="path218"
     transform="matrix(3.1250033,0,0,3.1250033,0,-7.8678214e-5)" />
  <path
     style="fill:#000000;stroke-width:0.230714"
     d="m 137.40193,34.5478 c -0.40468,-0.327689 -0.89026,-1.962332 -2.53582,-8.536401 l -2.0353,-8.1311 h 1.31775 1.31774 l 1.68235,6.171587 c 1.60613,5.892007 1.90801,6.773516 2.21464,6.466885 0.0745,-0.07445 0.63689,-2.208824 1.24985,-4.74305 1.04099,-4.303848 1.96515,-7.342254 2.28971,-7.528042 0.0768,-0.04393 0.81438,-0.14879 1.63918,-0.233019 l 1.49964,-0.153145 1.70591,6.296336 c 0.93825,3.462985 1.78779,6.452067 1.88787,6.642406 0.246,0.467875 0.23691,0.496903 1.48235,-4.729628 0.57451,-2.410956 1.32676,-5.18817 1.67167,-6.171587 0.59441,-1.694794 0.66341,-1.788194 1.32321,-1.79118 0.38286,-0.0017 0.92061,-0.06338 1.19501,-0.136983 0.4724,-0.126722 0.39618,0.27493 -1.43447,7.559018 -1.06336,4.231069 -2.0895,8.027545 -2.28032,8.436614 -0.2122,0.454918 -0.57837,0.801847 -0.94287,0.89333 -0.68319,0.17147 -2.16368,-0.02298 -2.46438,-0.323675 -0.29909,-0.299091 -2.93436,-10.084484 -3.10359,-11.524396 -0.13646,-1.161069 -0.18015,-1.229482 -0.74314,-1.163785 -0.58449,0.06821 -0.63438,0.218688 -2.18414,6.587458 l -1.58599,6.517657 h -1.33317 c -0.92787,0 -1.48533,-0.123215 -1.83369,-0.4053 z"
     id="path257"
     transform="matrix(3.1250033,0,0,3.1250033,0,-7.8678214e-5)" />
  <path
     style="fill:#000000;stroke-width:0.230714"
     d="m 164.68328,34.766931 c -3.29003,-1.171717 -5.02585,-3.712248 -5.29868,-7.755107 -0.41824,-6.197411 3.22429,-10.145079 9.00605,-9.760504 1.03177,0.06863 2.26758,0.292494 2.74625,0.497479 2.20486,0.944201 3.62823,3.192986 4.0731,6.435138 0.13621,0.992598 0.24764,1.952943 0.24764,2.1341 0,0.277902 -1.06169,0.329376 -6.79361,0.329376 h -6.79361 l 0.35445,1.211246 c 0.74095,2.531972 2.23231,4.235004 4.18309,4.776784 1.80686,0.501808 5.53842,0.1201 7.9781,-0.816095 0.30967,-0.11883 0.37944,0.01021 0.37944,0.701744 0,1.975766 -1.09651,2.478671 -5.65248,2.592453 -2.69997,0.06743 -3.42686,0.01055 -4.42974,-0.346614 z m 7.91382,-10.909252 c -0.47796,-2.988961 -2.65431,-4.620116 -5.66282,-4.244227 -2.65564,0.331801 -4.13039,1.711889 -4.53533,4.244227 l -0.15095,0.944026 h 5.25003 5.25002 z"
     id="path296"
     transform="matrix(3.1250033,0,0,3.1250033,0,-7.8678214e-5)" />
  <path
     style="fill:#000000;stroke-width:0.230714"
     d="m 183.17848,23.071353 c 4e-5,-6.598407 0.0296,-9.264518 0.0656,-5.924693 0.036,3.339826 0.036,8.738523 -7e-5,11.997104 -0.0361,3.258581 -0.0656,0.525996 -0.0655,-6.072411 z"
     id="path335"
     transform="matrix(3.1250033,0,0,3.1250033,0,-7.8678214e-5)" />
  <path
     style="fill:#000000;stroke-width:0.230714"
     d="m 189.30045,26.4167 v -8.536401 h 1.38429 1.38428 v 0.922613 0.922614 l 1.3266,-1.018832 c 1.52116,-1.168253 2.577,-1.515431 4.61427,-1.517249 l 1.44196,-0.0013 v 1.121047 1.121047 l -1.91795,0.119657 c -2.06911,0.129087 -2.93053,0.458033 -3.88123,1.482104 -1.41803,1.527481 -1.46167,1.756346 -1.54346,8.095571 l -0.0752,5.825516 h -1.36679 -1.3668 z"
     id="path374"
     transform="matrix(3.1250033,0,0,3.1250033,0,-7.8678214e-5)" />
  <path
     style="fill:#000000;stroke-width:0.230714"
     d="M 180.53334,23.071353 V 11.189606 h 1.26892 1.26893 V 23.071353 34.9531 h -1.26893 -1.26892 z"
     id="path413"
     transform="matrix(3.1250033,0,0,3.1250033,0,-7.8678214e-5)" />
  <path
     style="fill:#000000;stroke-width:0.230714"
     d="m 201.75899,40.633101 c 0,-1.046476 0.0135,-1.065913 0.74981,-1.075857 0.95826,-0.01294 2.37423,-0.516808 2.98957,-1.063826 0.67076,-0.596274 1.56208,-2.58561 1.56477,-3.492379 0.001,-0.427507 -1.36316,-4.298399 -3.12108,-8.854536 -1.71784,-4.452238 -3.09347,-8.124071 -3.05696,-8.15963 0.0365,-0.03556 0.56551,-0.008 1.17554,0.06124 l 1.10915,0.125896 0.91852,1.82685 c 0.50519,1.004767 1.75429,3.871628 2.77578,6.370801 1.02149,2.499173 1.93528,4.625997 2.03064,4.726275 0.0954,0.100279 0.98531,-1.976143 1.97766,-4.614271 0.99235,-2.638127 2.20404,-5.601208 2.69263,-6.584625 0.79852,-1.6072 0.95518,-1.78803 1.54909,-1.78803 0.3634,0 0.98037,-0.06393 1.37105,-0.142065 l 0.71032,-0.142065 -4.14179,10.345795 c -2.27799,5.690186 -4.47228,10.830096 -4.87621,11.422021 -1.07429,1.574293 -1.76513,1.898361 -4.28439,2.009763 l -2.1341,0.09437 z"
     id="path452"
     transform="matrix(3.1250033,0,0,3.1250033,0,-7.8678214e-5)" />
</svg>
