<?xml version="1.0" encoding="UTF-8" standalone="no"?>
<svg
   width="0.4in"
   height="0.12in"
   viewBox="0 0 120 36"
   version="1.1"
   id="svg9477"
   sodipodi:docname="logo.svg"
   inkscape:version="1.1.2 (b8e25be833, 2022-02-05)"
   xmlns:inkscape="http://www.inkscape.org/namespaces/inkscape"
   xmlns:sodipodi="http://sodipodi.sourceforge.net/DTD/sodipodi-0.dtd"
   xmlns="http://www.w3.org/2000/svg"
   xmlns:svg="http://www.w3.org/2000/svg">
  <defs
     id="defs9481" />
  <sodipodi:namedview
     id="namedview9479"
     pagecolor="#ffffff"
     bordercolor="#666666"
     borderopacity="1.0"
     inkscape:pageshadow="2"
     inkscape:pageopacity="0.0"
     inkscape:pagecheckerboard="0"
     inkscape:document-units="in"
     showgrid="false"
     inkscape:zoom="31.822916"
     inkscape:cx="19.184288"
     inkscape:cy="5.7505729"
     inkscape:window-width="1600"
     inkscape:window-height="837"
     inkscape:window-x="-8"
     inkscape:window-y="-8"
     inkscape:window-maximized="1"
     inkscape:current-layer="svg9477" />
  <path
     style="fill:#000000;stroke-width:0.0314239"
     d="M 10.68682,8.3787623 C 10.678575,8.3504758 10.48625,7.4576761 10.25943,6.3947628 10.03261,5.3318495 9.8394084,4.4303765 9.8300924,4.3914894 9.8133926,4.3217807 9.8175141,4.3207921 10.122944,4.321241 l 0.309789,4.553e-4 0.46073,1.2329326 0.46073,1.2329326 0.1049,-0.00872 c 0.24765,-0.020582 0.229147,0.013468 0.288575,-0.5310585 0.112601,-1.0317405 0.28245,-1.3798066 0.80107,-1.6416055 0.179526,-0.090624 0.592572,-0.2225456 0.69679,-0.2225456 0.04017,0 0.07606,0.193583 0.203899,1.0998363 l 0.155145,1.0998364 h 0.474873 0.474873 l 0.149628,-1.0605565 c 0.0823,-0.5833061 0.156931,-1.0923732 0.165855,-1.1312603 0.01587,-0.069151 0.02582,-0.070704 0.452755,-0.070704 0.355035,0 0.436528,0.00829 0.436528,0.044382 0,0.086892 -0.31164,1.3620911 -0.449926,1.8410522 C 15.05416,7.089419 14.767652,7.7195887 14.479688,8.030624 14.293893,8.2313063 14.152206,8.2981823 13.980914,8.2660476 13.665449,8.206866 13.43357,7.7963251 12.883596,6.3232531 12.689007,5.8020566 12.629597,5.6731789 12.588994,5.6841753 c -0.02797,0.00758 -0.10272,0.022501 -0.166106,0.033167 l -0.115246,0.019393 -0.02061,0.2425978 C 12.18175,7.2183879 12.074561,7.613762 11.756798,7.9351273 11.598851,8.0948637 11.4176,8.2041463 11.148777,8.3017238 10.822643,8.4201045 10.704608,8.4397884 10.68682,8.3787623 Z"
     id="path9520"
     transform="scale(3.125)" />
  <path
     style="fill:#000000;stroke-width:0.0314239"
     d="M 18.288707,8.4670135 C 17.617951,8.3664485 17.013627,7.9237807 16.700638,7.3037518 16.301982,6.5140189 16.510822,5.5648169 17.248047,4.8157189 c 0.155721,-0.1582292 0.204905,-0.1872868 0.435278,-0.2571596 0.46392,-0.1407084 0.691274,-0.181484 1.013893,-0.1818401 1.01649,-0.00112 1.750788,0.7252166 1.853747,1.8336534 0.03918,0.4218337 -0.07383,0.9452579 -0.288325,1.3354355 -0.13406,0.2438573 -0.49154,0.5744694 -0.765771,0.7082167 -0.397984,0.1941032 -0.828227,0.2699514 -1.208162,0.2129887 z m 0.70773,-0.9286007 C 19.355709,7.343061 19.622892,6.8350491 19.62385,6.3454744 19.62505,5.7077959 19.211228,5.2938105 18.479337,5.2006382 c -0.210475,-0.026794 -0.228608,-0.023974 -0.347749,0.054075 -0.249676,0.1635615 -0.512846,0.46177 -0.636366,0.721092 -0.105219,0.2208981 -0.117209,0.2718947 -0.116973,0.4975177 2.26e-4,0.2152911 0.01416,0.2807225 0.09705,0.4556465 0.286169,0.6039374 1.003047,0.8911544 1.521141,0.6094438 z"
     id="path9559"
     transform="scale(3.125)" />
  <path
     style="fill:#000000;stroke-width:0.0314239"
     d="M 21.949591,6.3947628 V 4.3207857 h 1.180173 1.180173 l -0.05677,0.097481 C 24.143903,4.605894 23.715663,5.0935364 23.372915,5.420622 23.182753,5.602095 22.988444,5.8124615 22.941119,5.888103 22.815375,6.0890828 22.713456,6.3813286 22.658772,6.6977121 22.60759,6.9938292 22.546941,7.8208662 22.546757,8.2252047 l -1.12e-4,0.2435352 h -0.298527 -0.298527 z"
     id="path9598"
     transform="scale(3.125)" />
  <path
     style="fill:#000000;stroke-width:0.0314239"
     d="M 25.469067,5.436334 V 2.403928 h 0.298527 0.298528 v 1.6688285 c 0,1.3812848 0.0072,1.6660466 0.04208,1.6526826 0.02314,-0.00888 0.330703,-0.2035929 0.683469,-0.4326949 0.717894,-0.4662309 1.078686,-0.6626579 1.379844,-0.7512307 0.22491,-0.066148 0.752998,-0.1695428 0.77149,-0.1510509 0.0064,0.00643 -0.440272,0.4634765 -0.992664,1.0156659 l -1.004348,1.0039808 0.99771,1.0006232 0.99771,1.0006233 -0.172831,-0.022267 C 28.316872,8.3308918 27.817378,8.1425674 27.499415,7.9105767 27.335023,7.7906345 26.937195,7.4419223 26.418246,6.9628902 26.25761,6.8146099 26.112667,6.6885762 26.096151,6.6828153 c -0.01863,-0.0065 -0.03003,0.3303776 -0.03003,0.887725 v 0.8981996 h -0.298528 -0.298527 z"
     id="path9637"
     transform="scale(3.125)" />
</svg>
